<?xml version="1.0" encoding="utf-8"?>
<!-- Generator: Adobe Illustrator 21.1.0, SVG Export Plug-In . SVG Version: 6.00 Build 0)  -->
<svg version="1.1"
	 id="svg2985" inkscape:export-filename="G:\Film Projects\Totally Socks\Assets\beach-scene-2.png" inkscape:export-xdpi="90" inkscape:export-ydpi="90" inkscape:version="0.48.2 r9819" sodipodi:docname="beach-scene-2.svg" xmlns:cc="http://creativecommons.org/ns#" xmlns:dc="http://purl.org/dc/elements/1.1/" xmlns:inkscape="http://www.inkscape.org/namespaces/inkscape" xmlns:rdf="http://www.w3.org/1999/02/22-rdf-syntax-ns#" xmlns:sodipodi="http://sodipodi.sourceforge.net/DTD/sodipodi-0.dtd" xmlns:svg="http://www.w3.org/2000/svg"
	 xmlns="http://www.w3.org/2000/svg" xmlns:xlink="http://www.w3.org/1999/xlink" x="0px" y="0px" viewBox="0 0 1920 1080"
	 style="enable-background:new 0 0 1920 1080;" xml:space="preserve">
<style type="text/css">
	.st0{clip-path:url(#SVGID_2_);}
	.st1{fill:#FFFFFF;}
	.st2{fill:#D79348;}
	.st3{fill:#C6DAD8;}
	.st4{opacity:0.3;filter:url(#filter7363);enable-background:new    ;}
	.st5{fill:url(#SVGID_5_);}
	.st6{fill:url(#path4397_2_);}
	.st7{fill:#E24423;}
	.st8{fill:#ECECEC;}
	.st9{fill:#F9F9F9;}
	.st10{fill:#ED6324;}
	.st11{fill:url(#path4415_1_);}
</style>
<filter  color-interpolation-filters="sRGB" id="filter7363" inkscape:collect="always">
	<feGaussianBlur  id="feGaussianBlur7365" inkscape:collect="always" stdDeviation="0.33468608"></feGaussianBlur>
</filter>
<g id="g976">
	<g>
		<defs>
			<rect id="SVGID_1_" x="448" y="122.6" width="447" height="171"/>
		</defs>
		<clipPath id="SVGID_2_">
			<use xlink:href="#SVGID_1_"  style="overflow:visible;"/>
		</clipPath>
		<g id="g978" class="st0">
			<g id="g980">
				<g id="g982" transform="matrix(447,0,0,171,448,122.55469)">
					<g>
						<path class="st1" d="M1,0C0.7,0,0.3,0,0,0c0,0,0,0,0,0c0.1,0,0.2,0,0.3,0C0.5,0,0.8,0,1,0C1,0,1,0,1,0z"/>
						<path class="st1" d="M0.1,0.7C0.1,0.7,0.1,0.7,0.1,0.7C0.2,0.7,0.2,0.7,0.1,0.7C0.2,0.7,0.2,0.7,0.1,0.7c0.1,0,0.1,0,0.1,0
							c0,0,0,0,0,0c0,0,0,0,0,0.1c0,0,0,0,0,0c0,0,0,0,0,0c0,0,0,0,0,0c0,0,0,0,0.1,0c0,0,0,0,0,0c0,0,0,0,0-0.1c0,0,0,0,0,0
							c0,0,0,0,0,0c0,0,0,0,0,0c0,0,0,0,0,0c0,0,0,0,0,0c0,0,0,0,0,0c0,0,0-0.1,0-0.1c0,0,0,0,0,0c0,0,0,0,0,0c0,0,0,0,0,0
							c0,0,0,0,0,0c0,0,0,0,0,0c0,0,0,0,0,0c0,0,0,0,0,0.1c0,0,0,0,0,0c0,0,0,0,0,0c0-0.1,0,0,0.1,0c0,0,0,0,0,0c0,0.1,0,0.1,0,0.1
							c0,0,0,0,0,0c0,0,0,0,0,0c0,0,0,0,0,0.1c0,0,0,0.1,0,0.1c0,0,0,0,0,0c0,0,0,0,0,0c-0.2,0-0.4,0-0.6,0c0,0,0,0,0,0c0,0,0,0,0,0
							C0.2,0.8,0.2,0.8,0.1,0.7C0.2,0.8,0.2,0.8,0.1,0.7C0.2,0.8,0.2,0.8,0.1,0.7C0.2,0.8,0.2,0.8,0.1,0.7C0.1,0.7,0.1,0.7,0.1,0.7
							C0.1,0.7,0.1,0.7,0.1,0.7z"/>
					</g>
				</g>
			</g>
		</g>
	</g>
</g>
<image style="overflow:visible;enable-background:new    ;" width="447" height="171" id="image988" xlink:href="AB677EB3.png"  transform="matrix(2.237136e-03 0 0 5.847953e-03 0 0)">
</image>
<g id="g846">
	<g>
		<defs>
			<rect id="SVGID_3_" x="472" y="386.6" width="191" height="100"/>
		</defs>
		<clipPath id="SVGID_4_">
			<use xlink:href="#SVGID_3_"  style="overflow:visible;"/>
		</clipPath>
	</g>
</g>
<image style="overflow:visible;enable-background:new    ;" width="191" height="100" id="image858" xlink:href="AB677EB1.png"  transform="matrix(5.235602e-03 0 0 1.000000e-02 0 0)">
</image>
<defs>
	
	
		<inkscape:perspective  id="perspective11795" inkscape:persp3d-origin="960 : 360 : 1" inkscape:vp_x="0 : 540 : 1" inkscape:vp_y="0 : 1000 : 0" inkscape:vp_z="1920 : 540 : 1" sodipodi:type="inkscape:persp3d">
		</inkscape:perspective>
</defs>
<sodipodi:namedview  bordercolor="#666666" borderopacity="1.0" id="base" inkscape:current-layer="layer2" inkscape:cx="744.7487" inkscape:cy="540" inkscape:document-units="px" inkscape:guide-bbox="true" inkscape:pageopacity="0.0" inkscape:pageshadow="2" inkscape:window-height="796" inkscape:window-maximized="1" inkscape:window-width="1600" inkscape:window-x="-8" inkscape:window-y="-8" inkscape:zoom="0.53425926" pagecolor="#ffffff" showgrid="false" showguides="true">
	</sodipodi:namedview>
<g id="layer2" inkscape:groupmode="layer" inkscape:label="Layer 2">
	<g id="g6490" transform="matrix(4.3496446,0,0,4.6684242,321.67986,-734.4824)">
		
			<path id="path4612" sodipodi:cx="-1195.7175" sodipodi:cy="-153.77579" sodipodi:rx="3.5355337" sodipodi:ry="7.0710673" sodipodi:type="arc" class="st2" d="
			M177.6,357.2c0.1-0.2,0.3-0.4,0.5-0.3c0.2,0.1,0.3,0.3,0.3,0.5c-0.1,0.2-0.3,0.4-0.5,0.3C177.7,357.6,177.5,357.4,177.6,357.2z"/>
	</g>
	<path id="path4395" inkscape:connector-curvature="0" class="st3" d="M756.2,386.8l4.5-13.8l138.8,7l30.7,12.3l-4.6,17.7l-4.5,1.7
		l-11,18l-6.1,8.7l-52-8.1l-83.6-13.4l-11.1-8.8l-1.5-9.6L756.2,386.8z"/>
	<g id="path7357_2_" inkscape:connector-curvature="0" sodipodi:nodetypes="ccccc" class="st4">
		
			<linearGradient id="SVGID_5_" gradientUnits="userSpaceOnUse" x1="627.7299" y1="640.3416" x2="624.9627" y2="638.85" gradientTransform="matrix(4.7841 0 0 -4.7841 -2172.5388 3856.0818)">
			<stop  offset="0" style="stop-color:#000000"/>
			<stop  offset="1" style="stop-color:#000000;stop-opacity:0"/>
		</linearGradient>
		<line class="st5" x1="818.5" y1="794.6" x2="833" y2="795.9"/>
	</g>
	
		<linearGradient id="path4397_2_" gradientUnits="userSpaceOnUse" x1="248.071" y1="-92.3359" x2="261.3193" y2="-92.3359" gradientTransform="matrix(0.944 0.1888 0.2643 -1.3216 659.0245 360.8099)">
		<stop  offset="0" style="stop-color:#DCDDDE"/>
		<stop  offset="1" style="stop-color:#6C6D6F"/>
	</linearGradient>
	<path id="path4397_1_" inkscape:connector-curvature="0" sodipodi:nodetypes="ccsccsc" class="st6" d="M828.4,796.4l105.4-526.8
		c0,0-1.7-3.3-5.4-4.4c-3.7-1.1-7.1,1.8-7.1,1.8L815.6,795.3"/>
	<path id="path4399" inkscape:connector-curvature="0" class="st7" d="M625.1,377.6l20.8,6.1l23.9,7.5l24,4.9l8.3-0.3l17,5.9
		l13.2,5.1l8.1,3.6l15.1-23.6c0,0,7.7-13.7,5.1-13.8c-2.5-0.1-124.7-10.2-124.7-10.2L625.1,377.6z"/>
	<path id="path4403" inkscape:connector-curvature="0" class="st8" d="M927.8,270.8l-92.1,1.2L754,282.7l-66.1,24l-13.1,10.2
		l-0.6,12.6l-4.4,17.9l-2.4,12.5l-7.7,10.5l16,6.2l18.3-4.6l61.3,2.8l44.9,5.7l55.6,8l25.1,3l20.2-8.1l26.4-63.8L927.8,270.8z"/>
	<path id="path4405" inkscape:connector-curvature="0" class="st7" d="M929.4,396l-3.8,13.9l3,4.6l-2.5,12.7l-0.9,6.3l6.2,4.8
		l125.6,17.9l32.9,5.3l12.4-5.2l5.4-6.1l4.6-17.7L929.4,396z"/>
	<path id="path4407" inkscape:connector-curvature="0" class="st3" d="M1074.5,428l-0.3,6.5l2.9,1.9l-5.2,23.9l50.7,0l13.1-2.9
		l6.7-5l-2.7-17.8l-40.7-13.7L1074.5,428z"/>
	<path id="path4409" inkscape:connector-curvature="0" class="st9" d="M927.8,270.8l-92.1,1.2L754,282.6l-66.1,24.1l-13.1,10.2
		l0,0.9l21.5,2.8l56,0.8l145,7.6l24.2,3.9l0.5,0.1l5.5-13.4L927.8,270.8L927.8,270.8z"/>
	<path id="path4411" inkscape:connector-curvature="0" class="st10" d="M926.7,270.5l21.6,2.3l80.4,28l92.2,48.9l34.4,29.7
		l-4.5,13.8l6.2,4.1l-10.5,34l-11.8,7.1L1008,417.3l-83.5-16.6l-20-9.2l-7.4-6.7l2.8-19.7l8.2-25.2l5.4-7.4l5.7-13.8l-0.1-11.5
		l3.1-12l2-15.9L926.7,270.5z"/>
	<path id="path4413" inkscape:connector-curvature="0" sodipodi:nodetypes="ccccccccc" class="st8" d="M1113.5,375.1l23,12.5
		l14.4,10.4l5,9.8l-13.7,41.8l-19.6-9.2l-8.2-1.6l-9.5-15.2L1113.5,375.1z"/>
	
		<linearGradient id="path4415_1_" gradientUnits="userSpaceOnUse" x1="1086.0062" y1="60.9809" x2="1147.0865" y2="-58.1262" gradientTransform="matrix(1.3463 6.197407e-02 6.197407e-02 -1.3463 -474.0381 276.7259)">
		<stop  offset="0" style="stop-color:#FF7F2A"/>
		<stop  offset="1" style="stop-color:#ED6324"/>
	</linearGradient>
	<path id="path4415" inkscape:connector-curvature="0" class="st11" d="M926.7,270.5l-2.3,8.8l-2,15.9l-3.1,12l0.1,11.5l-5.4,12.9
		l7.4,1.2l133.3,25.1l76,15.3l24.1,5.9l-34-29.3l-92.2-48.9l-80.4-27.9L926.7,270.5L926.7,270.5z"/>
	<path id="path4401" inkscape:connector-curvature="0" sodipodi:nodetypes="cccccccccc" class="st10" d="M680.8,312.8l-37.6,17.1
		l-13.6,19.2l-5.7,27.2l21.8-2.2l14.6-4.2l10.8-7.4l8.1-22.6l1.4-17.2L680.8,312.8z"/>
</g>
</svg>
